<svg width="94" height="33" viewBox="0 0 94 33" fill="none" xmlns="http://www.w3.org/2000/svg">
<rect y="0.97998" width="93.13" height="32" rx="8" fill="#F17228"/>
<path d="M8 16.8587V10.48C8 9.65154 8.67156 8.97998 9.5 8.97998H15.8787C16.2765 8.97998 16.658 9.13802 16.9393 9.41932L23.5607 16.0406C24.1464 16.6264 24.1464 17.5762 23.5607 18.1619L17.182 24.5406C16.5962 25.1264 15.6464 25.1264 15.0607 24.5406L8.43934 17.9193C8.15804 17.638 8 17.2565 8 16.8587ZM11.5 10.98C10.6716 10.98 10 11.6515 10 12.48C10 13.3084 10.6716 13.98 11.5 13.98C12.3284 13.98 13 13.3084 13 12.48C13 11.6515 12.3284 10.98 11.5 10.98Z" fill="#FFFEFE"/>
<path d="M33.2961 22.48V20.576H35.5041V14.704H33.6001V13.248C34.1548 13.1413 34.6241 13.0133 35.0081 12.864C35.3921 12.7146 35.7655 12.5333 36.1281 12.32H37.8561V20.576H39.7601V22.48H33.2961ZM44.8533 22.672C43.7653 22.672 42.8853 22.2186 42.2133 21.312C41.5519 20.4053 41.2213 19.088 41.2213 17.36C41.2213 15.632 41.5519 14.3306 42.2133 13.456C42.8853 12.5706 43.7653 12.128 44.8533 12.128C45.9413 12.128 46.8159 12.5706 47.4773 13.456C48.1493 14.3306 48.4853 15.632 48.4853 17.36C48.4853 19.088 48.1493 20.4053 47.4773 21.312C46.8159 22.2186 45.9413 22.672 44.8533 22.672ZM44.8533 20.848C45.1199 20.848 45.3599 20.752 45.5733 20.56C45.7866 20.3573 45.9519 20.0053 46.0693 19.504C46.1973 19.0026 46.2613 18.288 46.2613 17.36C46.2613 16.432 46.1973 15.7226 46.0693 15.232C45.9519 14.7413 45.7866 14.4053 45.5733 14.224C45.3599 14.0426 45.1199 13.952 44.8533 13.952C44.5973 13.952 44.3626 14.0426 44.1493 14.224C43.9359 14.4053 43.7653 14.7413 43.6373 15.232C43.5093 15.7226 43.4453 16.432 43.4453 17.36C43.4453 18.288 43.5093 19.0026 43.6373 19.504C43.7653 20.0053 43.9359 20.3573 44.1493 20.56C44.3626 20.752 44.5973 20.848 44.8533 20.848ZM52.0904 18.48C51.3437 18.48 50.7251 18.1866 50.2344 17.6C49.7437 17.0133 49.4984 16.1973 49.4984 15.152C49.4984 14.1066 49.7437 13.296 50.2344 12.72C50.7251 12.144 51.3437 11.856 52.0904 11.856C52.8477 11.856 53.4717 12.144 53.9624 12.72C54.4531 13.296 54.6984 14.1066 54.6984 15.152C54.6984 16.1973 54.4531 17.0133 53.9624 17.6C53.4717 18.1866 52.8477 18.48 52.0904 18.48ZM52.0904 17.168C52.3571 17.168 52.5811 17.0186 52.7624 16.72C52.9544 16.4213 53.0504 15.8986 53.0504 15.152C53.0504 14.4053 52.9544 13.888 52.7624 13.6C52.5811 13.312 52.3571 13.168 52.0904 13.168C51.8237 13.168 51.5944 13.312 51.4024 13.6C51.2211 13.888 51.1304 14.4053 51.1304 15.152C51.1304 15.8986 51.2211 16.4213 51.4024 16.72C51.5944 17.0186 51.8237 17.168 52.0904 17.168ZM52.4424 22.672L58.0744 11.856H59.4344L53.8024 22.672H52.4424ZM59.7864 22.672C59.0397 22.672 58.4211 22.3786 57.9304 21.792C57.4397 21.2053 57.1944 20.3893 57.1944 19.344C57.1944 18.2986 57.4397 17.488 57.9304 16.912C58.4211 16.336 59.0397 16.048 59.7864 16.048C60.5437 16.048 61.1677 16.336 61.6584 16.912C62.1491 17.488 62.3944 18.2986 62.3944 19.344C62.3944 20.3893 62.1491 21.2053 61.6584 21.792C61.1677 22.3786 60.5437 22.672 59.7864 22.672ZM59.7864 21.36C60.0531 21.36 60.2771 21.2106 60.4584 20.912C60.6504 20.6133 60.7464 20.0906 60.7464 19.344C60.7464 18.5973 60.6504 18.08 60.4584 17.792C60.2771 17.504 60.0531 17.36 59.7864 17.36C59.5197 17.36 59.2904 17.504 59.0984 17.792C58.9171 18.08 58.8264 18.5973 58.8264 19.344C58.8264 20.0906 58.9171 20.6133 59.0984 20.912C59.2904 21.2106 59.5197 21.36 59.7864 21.36ZM70.4523 22.672C69.7803 22.672 69.1456 22.512 68.5483 22.192C67.9616 21.8613 67.4869 21.3866 67.1243 20.768C66.7616 20.1386 66.5803 19.3866 66.5803 18.512C66.5803 17.6266 66.7616 16.8746 67.1243 16.256C67.4869 15.6373 67.9616 15.168 68.5483 14.848C69.1456 14.5173 69.7803 14.352 70.4523 14.352C71.1243 14.352 71.7536 14.5173 72.3403 14.848C72.9269 15.168 73.4016 15.6373 73.7643 16.256C74.1269 16.8746 74.3083 17.6266 74.3083 18.512C74.3083 19.3866 74.1269 20.1386 73.7643 20.768C73.4016 21.3866 72.9269 21.8613 72.3403 22.192C71.7536 22.512 71.1243 22.672 70.4523 22.672ZM70.4523 20.768C70.9323 20.768 71.2949 20.5653 71.5403 20.16C71.7856 19.744 71.9083 19.1946 71.9083 18.512C71.9083 17.8186 71.7856 17.2693 71.5403 16.864C71.2949 16.4586 70.9323 16.256 70.4523 16.256C69.9616 16.256 69.5936 16.4586 69.3483 16.864C69.1136 17.2693 68.9963 17.8186 68.9963 18.512C68.9963 19.1946 69.1136 19.744 69.3483 20.16C69.5936 20.5653 69.9616 20.768 70.4523 20.768ZM81.2971 22.48V16.384H78.5931V22.48H76.2411V16.384H75.1851V14.64L76.2411 14.56V14.192C76.2411 13.648 76.3425 13.152 76.5451 12.704C76.7478 12.256 77.0678 11.8986 77.5051 11.632C77.9531 11.3653 78.5345 11.232 79.2491 11.232C79.5905 11.232 79.9051 11.264 80.1931 11.328C80.4811 11.3813 80.7158 11.4453 80.8971 11.52L80.4651 13.264C80.3371 13.2106 80.2038 13.168 80.0651 13.136C79.9265 13.104 79.7505 13.088 79.5371 13.088C79.2705 13.088 79.0465 13.1786 78.8651 13.36C78.6838 13.5306 78.5931 13.8026 78.5931 14.176V14.544H81.2971V14.128C81.2971 13.5626 81.3931 13.0506 81.5851 12.592C81.7771 12.1333 82.0865 11.7653 82.5131 11.488C82.9398 11.2106 83.5105 11.072 84.2251 11.072C84.5558 11.072 84.8598 11.104 85.1371 11.168C85.4145 11.232 85.6385 11.296 85.8091 11.36L85.3771 13.088C85.2385 13.0346 85.0998 12.9973 84.9611 12.976C84.8225 12.944 84.6891 12.928 84.5611 12.928C84.2731 12.928 84.0491 13.0186 83.8891 13.2C83.7291 13.3706 83.6491 13.6586 83.6491 14.064V14.544H85.0731V16.384H83.6491V22.48H81.2971Z" fill="#FFFEFE"/>
</svg>
