<svg width="66" height="33" viewBox="0 0 66 33" fill="none" xmlns="http://www.w3.org/2000/svg">
<rect x="0.129883" y="0.97998" width="65.11" height="32" rx="8" fill="#FFB30E"/>
<path d="M16.1299 9.22998C11.8486 9.22998 8.37988 12.6987 8.37988 16.98C8.37988 21.2612 11.8486 24.73 16.1299 24.73C20.4111 24.73 23.8799 21.2612 23.8799 16.98C23.8799 12.6987 20.4111 9.22998 16.1299 9.22998ZM19.0202 19.0112L18.3952 19.7925C18.3542 19.8438 18.3035 19.8865 18.2459 19.9181C18.1884 19.9498 18.1252 19.9699 18.06 19.9771C17.9947 19.9844 17.9287 19.9787 17.8656 19.9604C17.8025 19.9421 17.7437 19.9116 17.6924 19.8706L15.5986 18.3169C15.4523 18.1997 15.3343 18.0512 15.2531 17.8823C15.172 17.7133 15.1299 17.5283 15.1299 17.3409V12.48C15.1299 12.3474 15.1826 12.2202 15.2763 12.1264C15.3701 12.0327 15.4973 11.98 15.6299 11.98H16.6299C16.7625 11.98 16.8897 12.0327 16.9834 12.1264C17.0772 12.2202 17.1299 12.3474 17.1299 12.48V16.98L18.9424 18.3081C18.9937 18.3491 19.0364 18.3999 19.0681 18.4575C19.0998 18.515 19.1198 18.5782 19.127 18.6435C19.1342 18.7088 19.1285 18.7749 19.1102 18.838C19.0919 18.9011 19.0613 18.96 19.0202 19.0112Z" fill="#FFFEFE"/>
<path d="M29.5422 22.48V12.048H36.1182V14.032H31.8942V16.448H35.5102V18.432H31.8942V22.48H29.5422ZM39.1315 22.672C38.4061 22.672 37.8301 22.4426 37.4035 21.984C36.9768 21.5146 36.7635 20.944 36.7635 20.272C36.7635 19.44 37.1155 18.7893 37.8195 18.32C38.5235 17.8506 39.6595 17.536 41.2275 17.376C41.2061 17.024 41.0995 16.7466 40.9075 16.544C40.7261 16.3306 40.4168 16.224 39.9795 16.224C39.6488 16.224 39.3128 16.288 38.9715 16.416C38.6301 16.544 38.2675 16.72 37.8835 16.944L37.0355 15.392C37.5368 15.0826 38.0701 14.832 38.6355 14.64C39.2115 14.448 39.8088 14.352 40.4275 14.352C41.4408 14.352 42.2195 14.6453 42.7635 15.232C43.3075 15.8186 43.5795 16.72 43.5795 17.936V22.48H41.6595L41.4995 21.664H41.4355C41.1048 21.9626 40.7475 22.208 40.3635 22.4C39.9901 22.5813 39.5795 22.672 39.1315 22.672ZM39.9315 20.848C40.1981 20.848 40.4275 20.7893 40.6195 20.672C40.8221 20.544 41.0248 20.3786 41.2275 20.176V18.784C40.3955 18.8906 39.8195 19.0613 39.4995 19.296C39.1795 19.52 39.0195 19.7866 39.0195 20.096C39.0195 20.352 39.0995 20.544 39.2595 20.672C39.4301 20.7893 39.6541 20.848 39.9315 20.848ZM47.905 22.672C47.3823 22.672 46.8436 22.5706 46.289 22.368C45.745 22.1653 45.2703 21.8986 44.865 21.568L45.921 20.096C46.2836 20.3626 46.6303 20.5706 46.961 20.72C47.3023 20.8586 47.6383 20.928 47.969 20.928C48.321 20.928 48.577 20.8693 48.737 20.752C48.897 20.624 48.977 20.4586 48.977 20.256C48.977 20.0746 48.897 19.9253 48.737 19.808C48.5876 19.6906 48.3903 19.584 48.145 19.488C47.8996 19.3813 47.6383 19.2746 47.361 19.168C47.041 19.04 46.721 18.88 46.401 18.688C46.0916 18.496 45.8303 18.2506 45.617 17.952C45.4036 17.6426 45.297 17.2693 45.297 16.832C45.297 16.096 45.5743 15.4986 46.129 15.04C46.6943 14.5813 47.4303 14.352 48.337 14.352C48.945 14.352 49.4783 14.4586 49.937 14.672C50.4063 14.8746 50.8063 15.104 51.137 15.36L50.081 16.768C49.8036 16.5546 49.5263 16.3893 49.249 16.272C48.9716 16.1546 48.6943 16.096 48.417 16.096C47.809 16.096 47.505 16.304 47.505 16.72C47.505 16.976 47.6543 17.1733 47.953 17.312C48.2623 17.44 48.6196 17.5786 49.025 17.728C49.3663 17.8453 49.697 18 50.017 18.192C50.3476 18.3733 50.6196 18.6186 50.833 18.928C51.057 19.2266 51.169 19.6213 51.169 20.112C51.169 20.8266 50.8916 21.4346 50.337 21.936C49.7823 22.4266 48.9716 22.672 47.905 22.672ZM55.4062 22.672C54.4249 22.672 53.7209 22.3893 53.2942 21.824C52.8782 21.2586 52.6702 20.5173 52.6702 19.6V16.384H51.5822V14.64L52.7982 14.544L53.0702 12.432H55.0222V14.544H56.9262V16.384H55.0222V19.568C55.0222 20.016 55.1129 20.3413 55.2942 20.544C55.4862 20.736 55.7369 20.832 56.0462 20.832C56.1742 20.832 56.3022 20.816 56.4302 20.784C56.5689 20.752 56.6916 20.7146 56.7982 20.672L57.1662 22.384C56.9636 22.448 56.7129 22.512 56.4142 22.576C56.1262 22.64 55.7902 22.672 55.4062 22.672Z" fill="#FFFEFE"/>
</svg>
