<svg width="28" height="30" viewBox="0 0 28 30" fill="none" xmlns="http://www.w3.org/2000/svg">
<mask id="mask0_0_1247" style="mask-type:alpha" maskUnits="userSpaceOnUse" x="0" y="0" width="28" height="30">
<path d="M8.89403 26.3598C8.89403 28.3611 7.27172 29.9834 5.2705 29.9834C3.26928 29.9834 1.64697 28.3611 1.64697 26.3598C1.64697 24.3586 3.26928 22.7363 5.2705 22.7363C7.27172 22.7363 8.89403 24.3586 8.89403 26.3598Z" fill="#C4C4C4"/>
<path d="M26.353 26.3598C26.353 28.3611 24.7307 29.9834 22.7295 29.9834C20.7283 29.9834 19.106 28.3611 19.106 26.3598C19.106 24.3586 20.7283 22.7363 22.7295 22.7363C24.7307 22.7363 26.353 24.3586 26.353 26.3598Z" fill="#C4C4C4"/>
<path fill-rule="evenodd" clip-rule="evenodd" d="M25.1913 23.7009C25.4382 23.9296 25.4094 24.316 25.1508 24.5314C23.7802 25.673 22.0174 26.3598 20.0941 26.3598H19.7649C19.401 26.3598 19.0998 26.0622 19.1652 25.7042C19.4737 24.016 20.9522 22.7363 22.7296 22.7363C23.68 22.7363 24.545 23.1022 25.1913 23.7009ZM27.0987 22.1233C26.8986 22.5044 26.3844 22.5381 26.0504 22.2668C25.144 21.5305 23.9883 21.0893 22.7296 21.0893C20.0414 21.0893 17.8233 23.1017 17.4996 25.7023C17.4547 26.0633 17.164 26.3598 16.8002 26.3598H11.2C10.8361 26.3598 10.5455 26.0633 10.5006 25.7023C10.1769 23.1017 7.95876 21.0893 5.27059 21.0893C4.0118 21.0893 2.85608 21.5305 1.94969 22.2669C1.61563 22.5382 1.10145 22.5045 0.901402 22.1234C0.325709 21.0268 0 19.7784 0 18.4539V16.8067C0 16.4429 0.294965 16.1479 0.658823 16.1479H27.3412C27.705 16.1479 28 16.4429 28 16.8067V18.4539C28 19.7783 27.6743 21.0267 27.0987 22.1233ZM28 13.842C28 14.2059 27.705 14.5008 27.3412 14.5008H0.658824C0.294965 14.5008 0 14.2059 0 13.842V9.88914C0 9.52528 0.294965 9.23032 0.658823 9.23032H27.3412C27.705 9.23032 28 9.52528 28 9.88914V13.842ZM7.90588 0.00683594C3.883 0.00683594 0.561907 3.01152 0.0643695 6.89912C0.0168356 7.27053 0.318678 7.58326 0.693122 7.58326H27.3069C27.6813 7.58326 27.9832 7.27053 27.9356 6.89912C27.4381 3.01152 24.117 0.00683594 20.0941 0.00683594H7.90588ZM5.27059 22.7363C7.04795 22.7363 8.52644 24.016 8.83496 25.7042C8.90037 26.0622 8.59914 26.3598 8.23528 26.3598H7.90588C5.98268 26.3598 4.21987 25.673 2.84928 24.5315C2.59074 24.3161 2.56193 23.9296 2.80878 23.701C3.45509 23.1023 4.3201 22.7363 5.27059 22.7363Z" fill="#C4C4C4"/>
</mask>
<g mask="url(#mask0_0_1247)">
<path d="M31.953 -2.29883H-1.64697V8.57177H31.953V-2.29883Z" fill="url(#paint0_linear_0_1247)"/>
<path d="M31.953 15.4893H-1.64697V31.9599H31.953V15.4893Z" fill="#FFA833"/>
<path d="M28.3295 8.57178H1.97656C-0.0246632 8.57178 -1.64697 10.1941 -1.64697 12.1953C-1.64697 14.1965 -0.0246632 15.8188 1.97656 15.8188H28.3295C30.3307 15.8188 31.953 14.1965 31.953 12.1953C31.953 10.1941 30.3307 8.57178 28.3295 8.57178Z" fill="#F17228"/>
<path d="M8.89431 22.7363H-23.0586V29.9834H8.89431V22.7363Z" fill="#F58D00"/>
<path d="M51.0593 22.7363H19.1064V29.9834H51.0593V22.7363Z" fill="#F58D00"/>
<path d="M8.29049 3.28552C8.80659 3.0889 9.14528 2.72032 9.04697 2.46227C8.94866 2.20422 8.45059 2.15442 7.93449 2.35103C7.41838 2.54764 7.07969 2.91622 7.178 3.17427C7.27631 3.43233 7.77438 3.48213 8.29049 3.28552Z" fill="white"/>
<path d="M14 2.99512C14.5523 2.99512 15 2.77126 15 2.49512C15 2.21897 14.5523 1.99512 14 1.99512C13.4477 1.99512 13 2.21897 13 2.49512C13 2.77126 13.4477 2.99512 14 2.99512Z" fill="white"/>
<path d="M18.8819 3.34837C19.3691 3.60863 19.8694 3.62218 19.9996 3.37862C20.1297 3.13506 19.8403 2.72663 19.3532 2.46637C18.8661 2.2061 18.3657 2.19256 18.2356 2.43612C18.1054 2.67967 18.3948 3.0881 18.8819 3.34837Z" fill="white"/>
</g>
<defs>
<linearGradient id="paint0_linear_0_1247" x1="15.0001" y1="-0.504878" x2="15.0001" y2="16.9951" gradientUnits="userSpaceOnUse">
<stop stop-color="#FFD16D"/>
<stop offset="1" stop-color="#FF7A00"/>
</linearGradient>
</defs>
</svg>
