<svg width="170" height="43" viewBox="0 0 170 43" fill="none" xmlns="http://www.w3.org/2000/svg">
<rect x="1.37988" y="0.919922" width="167.23" height="41" rx="5.1" fill="#FFB30E"/>
<rect x="1.37988" y="0.919922" width="167.23" height="41" rx="5.1" stroke="#FFB30E"/>
<path d="M51.4934 27.4199L48.3414 16.9879H50.8374L52.0854 21.8519C52.2454 22.4173 52.3841 22.9719 52.5014 23.5159C52.6294 24.0599 52.7734 24.6199 52.9334 25.1959H52.9974C53.1468 24.6199 53.2854 24.0599 53.4134 23.5159C53.5414 22.9719 53.6801 22.4173 53.8294 21.8519L55.0614 16.9879H57.4614L54.3254 27.4199H51.4934ZM58.384 27.4199V19.4839H60.736V27.4199H58.384ZM59.552 18.3159C59.1574 18.3159 58.8374 18.2039 58.592 17.9799C58.3467 17.7559 58.224 17.4573 58.224 17.0839C58.224 16.7106 58.3467 16.4119 58.592 16.1879C58.8374 15.9639 59.1574 15.8519 59.552 15.8519C59.9467 15.8519 60.2667 15.9639 60.512 16.1879C60.7574 16.4119 60.88 16.7106 60.88 17.0839C60.88 17.4573 60.7574 17.7559 60.512 17.9799C60.2667 18.2039 59.9467 18.3159 59.552 18.3159ZM66.3579 27.6119C65.6006 27.6119 64.9179 27.4466 64.3099 27.1159C63.7019 26.7853 63.2219 26.3106 62.8699 25.6919C62.5179 25.0733 62.3419 24.3266 62.3419 23.4519C62.3419 22.5879 62.5179 21.8466 62.8699 21.2279C63.2326 20.6093 63.7019 20.1346 64.2779 19.8039C64.8539 19.4626 65.4566 19.2919 66.0859 19.2919C66.8433 19.2919 67.4673 19.4626 67.9579 19.8039C68.4593 20.1346 68.8326 20.5879 69.0779 21.1639C69.3339 21.7293 69.4619 22.3746 69.4619 23.0999C69.4619 23.3026 69.4513 23.5053 69.4299 23.7079C69.4086 23.8999 69.3873 24.0439 69.3659 24.1399H64.6139C64.7206 24.7159 64.9606 25.1426 65.3339 25.4199C65.7073 25.6866 66.1553 25.8199 66.6779 25.8199C67.2433 25.8199 67.8139 25.6439 68.3899 25.2919L69.1739 26.7159C68.7686 26.9933 68.3153 27.2119 67.8139 27.3719C67.3126 27.5319 66.8273 27.6119 66.3579 27.6119ZM64.5979 22.5879H67.4619C67.4619 22.1506 67.3553 21.7933 67.1419 21.5159C66.9393 21.2279 66.6033 21.0839 66.1339 21.0839C65.7713 21.0839 65.4459 21.2119 65.1579 21.4679C64.8699 21.7133 64.6833 22.0866 64.5979 22.5879ZM72.3214 27.4199L70.3374 19.4839H72.6734L73.4414 23.1639C73.5054 23.5586 73.5641 23.9479 73.6174 24.3319C73.6708 24.7159 73.7294 25.1106 73.7934 25.5159H73.8574C73.9321 25.1106 74.0014 24.7106 74.0654 24.3159C74.1401 23.9213 74.2254 23.5373 74.3214 23.1639L75.2014 19.4839H77.2334L78.1294 23.1639C78.2254 23.5586 78.3108 23.9479 78.3854 24.3319C78.4708 24.7159 78.5508 25.1106 78.6254 25.5159H78.6894C78.7641 25.1106 78.8228 24.7159 78.8654 24.3319C78.9188 23.9479 78.9828 23.5586 79.0574 23.1639L79.8094 19.4839H81.9854L80.0814 27.4199H77.3294L76.6094 24.2519C76.5348 23.8786 76.4601 23.5053 76.3854 23.1319C76.3214 22.7586 76.2521 22.3586 76.1774 21.9319H76.1134C76.0388 22.3586 75.9694 22.7586 75.9054 23.1319C75.8521 23.5053 75.7881 23.8786 75.7134 24.2519L75.0094 27.4199H72.3214ZM89.2584 22.1399L89.0024 23.0999H91.2264L90.9864 22.1399C90.8478 21.6173 90.7038 21.0626 90.5544 20.4759C90.4158 19.8893 90.2771 19.3239 90.1384 18.7799H90.0744C89.9464 19.3346 89.8131 19.9053 89.6744 20.4919C89.5464 21.0679 89.4078 21.6173 89.2584 22.1399ZM85.4824 27.4199L88.7464 16.9879H91.5784L94.8424 27.4199H92.3464L91.7064 24.9399H88.5224L87.8824 27.4199H85.4824ZM97.9503 27.6119C97.1396 27.6119 96.5743 27.3719 96.2543 26.8919C95.945 26.4013 95.7903 25.7559 95.7903 24.9559V16.2039H98.1423V25.0519C98.1423 25.2973 98.185 25.4679 98.2703 25.5639C98.3663 25.6599 98.4623 25.7079 98.5583 25.7079C98.6116 25.7079 98.6543 25.7079 98.6863 25.7079C98.729 25.6973 98.7823 25.6866 98.8463 25.6759L99.1343 27.4199C99.0063 27.4733 98.841 27.5159 98.6383 27.5479C98.4463 27.5906 98.217 27.6119 97.9503 27.6119ZM102.528 27.6119C101.718 27.6119 101.152 27.3719 100.832 26.8919C100.523 26.4013 100.368 25.7559 100.368 24.9559V16.2039H102.72V25.0519C102.72 25.2973 102.763 25.4679 102.848 25.5639C102.944 25.6599 103.04 25.7079 103.136 25.7079C103.19 25.7079 103.232 25.7079 103.264 25.7079C103.307 25.6973 103.36 25.6866 103.424 25.6759L103.712 27.4199C103.584 27.4733 103.419 27.5159 103.216 27.5479C103.024 27.5906 102.795 27.6119 102.528 27.6119Z" fill="#FFFEFE"/>
<path d="M122.231 21.9503L116.158 28.0235C115.865 28.3164 115.39 28.3164 115.097 28.0235L114.389 27.3151C114.097 27.0227 114.096 26.5488 114.388 26.2557L119.201 21.4199L114.388 16.5841C114.096 16.291 114.097 15.8171 114.389 15.5247L115.097 14.8164C115.39 14.5235 115.865 14.5235 116.158 14.8164L122.231 20.8896C122.524 21.1825 122.524 21.6574 122.231 21.9503Z" fill="#FFFEFE"/>
</svg>
