<svg width="20" height="13" viewBox="0 0 20 13" fill="none" xmlns="http://www.w3.org/2000/svg">
<path d="M16.0282 4.48999C15.5625 4.48687 15.1188 4.56186 14.7032 4.70562L13.675 2.98999H16.25C16.6657 2.98999 17 2.65562 17 2.23999V1.23999C17 0.824365 16.6657 0.48999 16.25 0.48999H14.8344C14.6219 0.48999 14.4188 0.580615 14.2782 0.736865L13.1063 2.03999L12.3938 0.85249C12.2563 0.62749 12.0125 0.48999 11.75 0.48999H9.25004C8.97504 0.48999 8.75004 0.71499 8.75004 0.98999V1.48999C8.75004 1.76499 8.97504 1.98999 9.25004 1.98999H11.325L11.925 2.98999H7.12191C6.56879 2.26812 5.71879 1.73999 4.00004 1.73999H2.26566C1.84379 1.73999 1.49066 2.08374 1.50004 2.50562C1.50629 2.91187 1.84066 3.23999 2.25004 3.23999H4.00004C4.76566 3.23999 5.20941 3.58062 5.49379 4.01499L5.14066 4.65562C4.73441 4.53374 4.30003 4.47749 3.85004 4.49312C1.74691 4.56812 0.0500353 6.28999 3.53393e-05 8.39624C-0.0499647 10.6494 1.75941 12.49 4.00004 12.49C5.86254 12.49 7.42816 11.215 7.87504 9.48999H10.5063C10.9344 9.48999 11.275 9.13374 11.2563 8.70562C11.1907 7.23374 11.8032 5.77749 13.0125 4.79937L13.4032 5.44937C12.5407 6.18999 11.9938 7.28999 12.0032 8.51812C12.0188 10.6931 13.7907 12.4712 15.9657 12.49C18.2032 12.5119 20.0219 10.6931 20.0032 8.45562C19.9813 6.28061 18.2032 4.50562 16.0282 4.48999ZM4.00004 10.99C2.62191 10.99 1.50004 9.86812 1.50004 8.48999C1.50004 7.11187 2.62191 5.98999 4.00004 5.98999C4.13129 5.98999 4.26254 5.99937 4.39066 6.02124L3.09379 8.37749C2.81879 8.87749 3.18129 9.48999 3.75004 9.48999H6.29066C5.90316 10.3712 5.02191 10.99 4.00004 10.99ZM18.4969 8.62749C18.4282 9.89624 17.4032 10.9212 16.1375 10.9869C14.6969 11.065 13.5 9.91499 13.5 8.48999C13.5 7.82124 13.7625 7.21499 14.1907 6.76812L15.7344 9.34311C15.875 9.58062 16.1844 9.65561 16.4219 9.51499L16.85 9.25874C17.0875 9.11812 17.1625 8.80874 17.0219 8.57124L15.5032 6.04312C15.6657 6.00874 15.8313 5.99312 16 5.99312C17.425 5.98999 18.5719 7.18686 18.4969 8.62749Z" fill="#F17228"/>
</svg>
